<svg style="position: absolute; width: 0; height: 0; overflow: hidden;" version="1.1"
     xmlns="http://www.w3.org/2000/svg" xmlns:xlink="http://www.w3.org/1999/xlink">
  <defs>
    <symbol id="icon-del" viewBox="0 0 32 32">
      <title>delete</title>
      <path class="path1"
            d="M11.355 4.129v-2.065h9.29v2.065h-9.29zM6.194 29.935v-23.742h19.613v23.742h-19.613zM30.968 4.129h-8.258v-3.097c0-0.569-0.463-1.032-1.032-1.032h-11.355c-0.569 0-1.032 0.463-1.032 1.032v3.097h-8.258c-0.569 0-1.032 0.463-1.032 1.032s0.463 1.032 1.032 1.032h3.097v24.774c0 0.569 0.463 1.032 1.032 1.032h21.677c0.569 0 1.032-0.463 1.032-1.032v-24.774h3.097c0.569 0 1.032-0.463 1.032-1.032s-0.463-1.032-1.032-1.032v0z"></path>
      <path class="path2"
            d="M10.323 9.806c-0.569 0-1.032 0.463-1.032 1.032v14.452c0 0.569 0.463 1.032 1.032 1.032s1.032-0.463 1.032-1.032v-14.452c0-0.569-0.463-1.032-1.032-1.032z"></path>
      <path class="path3"
            d="M16 9.806c-0.569 0-1.032 0.463-1.032 1.032v14.452c0 0.569 0.463 1.032 1.032 1.032s1.032-0.463 1.032-1.032v-14.452c0-0.569-0.463-1.032-1.032-1.032z"></path>
      <path class="path4"
            d="M21.677 9.806c-0.569 0-1.032 0.463-1.032 1.032v14.452c0 0.569 0.463 1.032 1.032 1.032s1.032-0.463 1.032-1.032v-14.452c0-0.569-0.463-1.032-1.032-1.032z"></path>
    </symbol>
  </defs>
</svg>
